<svg width="37" height="37" viewBox="0 0 37 37" fill="none" xmlns="http://www.w3.org/2000/svg">
<g clip-path="url(#clip0_3850_684)">
<path fill-rule="evenodd" clip-rule="evenodd" d="M18.5 37C8.28436 37 0 28.7156 0 18.5C0 8.28436 8.28436 0 18.5 0C28.7156 0 37 8.28436 37 18.5C37 28.7156 28.7156 37 18.5 37ZM18.5 6.46684C23.5608 6.46684 27.6633 10.5693 27.6633 15.6302C27.6633 20.6909 18.5 30.533 18.5 30.533C18.5 30.533 9.33667 20.6909 9.33667 15.6302C9.33667 10.5693 13.4392 6.46684 18.5 6.46684ZM18.5 11.9895C20.4188 11.9895 21.9748 13.5455 21.9748 15.4644C21.9748 17.3832 20.4188 18.9392 18.5 18.9392C16.5812 18.9392 15.0252 17.3832 15.0252 15.4644C15.0252 13.5455 16.5812 11.9895 18.5 11.9895Z" fill="#363636"/>
</g>
<defs>
<clipPath id="clip0_3850_684">
<rect width="37" height="37" fill="white"/>
</clipPath>
</defs>
</svg>
