<svg width="37" height="37" viewBox="0 0 37 37" fill="none" xmlns="http://www.w3.org/2000/svg">
<g clip-path="url(#clip0_3850_680)">
<path fill-rule="evenodd" clip-rule="evenodd" d="M18.5 37C8.29906 37 0 28.7009 0 18.5C0 8.29906 8.29906 0 18.5 0C28.7009 0 37 8.29906 37 18.5C37 28.7009 28.7009 37 18.5 37ZM28.0938 24.9989C28.3219 24.9989 28.5076 24.8133 28.5076 24.5852V12.9709L19.095 20.4455C18.9208 20.5839 18.7103 20.653 18.4999 20.653C18.2896 20.653 18.0791 20.5838 17.9049 20.4455L8.49237 12.9709V24.5852C8.49237 24.8133 8.67802 24.9989 8.90609 24.9989H28.0938ZM26.6514 12.0011L18.5 18.4743L10.3485 12.0011H26.6514ZM30.4214 12.4148V24.5853C30.4214 25.8687 29.3772 26.9129 28.0938 26.9129H8.90609C7.62265 26.9129 6.57863 25.8687 6.57863 24.5853V12.4148C6.57863 11.1314 7.62272 10.0873 8.90609 10.0873H28.0938C29.3772 10.0873 30.4214 11.1314 30.4214 12.4148Z" fill="#363636"/>
</g>
<defs>
<clipPath id="clip0_3850_680">
<rect width="37" height="37" fill="white"/>
</clipPath>
</defs>
</svg>
