<svg width="32" height="32" viewBox="0 0 32 32" fill="none" xmlns="http://www.w3.org/2000/svg">
<rect width="32" height="32" rx="5" fill="#302357" fill-opacity="0.15"/>
<g clip-path="url(#clip0_19515_824)">
<path d="M14.2422 26V24.2031C12.9496 24.2031 11.8984 23.152 11.8984 21.8594C11.8984 20.5668 12.9496 19.5156 14.2422 19.5156V17.7578H10.9669L11.2455 16.975C11.2902 16.8509 11.3125 16.7198 11.3125 16.5859C11.3125 15.9399 10.7866 15.4141 10.1406 15.4141C9.49461 15.4141 8.96875 15.9399 8.96875 16.5859C8.96875 16.7198 8.99105 16.8509 9.0357 16.975L9.31437 17.7578H6C6.29074 22.1364 9.86359 25.7093 14.2422 26Z" fill="#302357"/>
<path d="M10.1406 14.2418C11.4332 14.2418 12.4844 15.2929 12.4844 16.5855H14.2422V13.3102L15.025 13.5889C15.7465 13.8458 16.5854 13.2633 16.5859 12.484C16.5854 11.7041 15.7471 11.117 15.025 11.3791L14.2422 11.6577V8.41211C9.86359 8.70285 6.29074 12.207 6 16.5855H7.79688C7.79688 15.2929 8.84801 14.2418 10.1406 14.2418Z" fill="#302357"/>
<path d="M23.5875 17.7578H21.8594C21.8594 19.0504 20.8082 20.1016 19.5156 20.1016C18.223 20.1016 17.1719 19.0504 17.1719 17.7578H15.4141V21.0331L14.6313 20.7545C13.9069 20.4941 13.0697 21.0795 13.0703 21.8594C13.0697 22.6393 13.9075 23.2246 14.6313 22.9643L15.4141 22.6856V26C19.7927 25.7093 23.2968 22.1364 23.5875 17.7578Z" fill="#302357"/>
<path d="M23.6172 10.7266V8.38281H21.2734C21.2734 7.0902 20.2223 6 18.9297 6C17.6371 6 16.5859 7.0902 16.5859 8.38281H15.4141V10.1406C16.7067 10.1406 17.7578 11.1918 17.7578 12.4844C17.7578 13.777 16.7067 14.8281 15.4141 14.8281V16.5859H18.6894L18.4107 17.3687C18.3661 17.4929 18.3438 17.6239 18.3438 17.7578C18.3438 18.4038 18.8696 18.9297 19.5156 18.9297C20.1616 18.9297 20.6875 18.4038 20.6875 17.7578C20.6875 17.6239 20.6652 17.4929 20.6205 17.3687L20.3419 16.5859H23.6172V15.4141C24.9098 15.4141 26 14.3629 26 13.0703C26 11.7777 24.9098 10.7266 23.6172 10.7266Z" fill="#302357"/>
</g>
<defs>
<clipPath id="clip0_19515_824">
<rect width="20" height="20" fill="white" transform="translate(6 6)"/>
</clipPath>
</defs>
</svg>
