<svg width="32" height="32" viewBox="0 0 32 32" fill="none" xmlns="http://www.w3.org/2000/svg">
<rect width="32" height="32" rx="5" fill="#302357" fill-opacity="0.15"/>
<path d="M23.7051 6.5H19.4494C19.0861 6.5 18.9064 6.93516 19.1619 7.19067L20.5872 8.6279L16.9182 12.2888L13.5647 9.77768C13.1255 9.45031 12.5067 9.52617 12.1634 9.95334L8.11121 15.0156C7.75989 15.4507 7.87167 16.0416 8.2709 16.4368C8.4825 16.6484 9.29293 16.7642 9.69616 16.2771L13.1375 11.9814L16.4072 14.4287C16.8104 14.7321 17.3773 14.6922 17.7327 14.3329L22.0164 10.0611L23.4217 11.4784C23.6772 11.7339 24.1124 11.5543 24.1124 11.191V6.90322C24.1124 6.67965 23.9327 6.5 23.7051 6.5Z" fill="#302357"/>
<path d="M11.5366 19.6982H8.29486C8.07129 19.6982 7.88764 19.8779 7.88764 20.1015V25.0965C7.88764 25.32 8.0673 25.4997 8.29486 25.4997H11.5406C11.7642 25.4997 11.9478 25.32 11.9478 25.0965V20.1015C11.9438 19.8779 11.7642 19.6982 11.5366 19.6982Z" fill="#302357"/>
<path d="M17.6209 17.6709H14.3751C14.1516 17.6709 13.9679 17.8506 13.9679 18.0741V25.0932C13.9679 25.3168 14.1476 25.4964 14.3751 25.4964H17.6209C17.8445 25.4964 18.0281 25.3168 18.0281 25.0932V18.0781C18.0281 17.8545 17.8484 17.6709 17.6209 17.6709Z" fill="#302357"/>
<path d="M23.7051 14.6367H20.4594C20.2358 14.6367 20.0522 14.8164 20.0522 15.0399V25.0932C20.0522 25.3168 20.2318 25.4964 20.4594 25.4964H23.7051C23.9287 25.4964 24.1124 25.3168 24.1124 25.0932V15.0399C24.1124 14.8204 23.9327 14.6367 23.7051 14.6367Z" fill="#302357"/>
</svg>
