<svg width="32" height="32" viewBox="0 0 32 32" fill="none" xmlns="http://www.w3.org/2000/svg">
<rect width="32" height="32" rx="5" fill="#302357" fill-opacity="0.15"/>
<path d="M10.3863 18.3251C10.4398 17.747 10.8589 17.2174 11.4146 17.0283C11.4146 17.0283 11.4146 14.444 11.4146 14.444H12.5617C12.6867 14.444 12.8024 14.369 12.8493 14.2502C12.8993 14.1346 12.8711 14.0003 12.7836 13.9096L10.2832 11.4098C10.1613 11.2879 9.96123 11.2879 9.83932 11.4098L7.33886 13.9096C7.14468 14.0968 7.29132 14.4527 7.5608 14.444C7.56078 14.444 8.70474 14.444 8.70474 14.444V24.4373C8.70474 24.6092 8.8454 24.7498 9.0173 24.7498H10.6895C10.4862 24.4759 10.3757 24.1681 10.3738 23.8123V18.5001C10.3738 18.4594 10.3738 18.3969 10.3863 18.3251Z" fill="#302357"/>
<path d="M24.6608 13.9096L22.1604 11.4098C22.0385 11.2879 21.8384 11.2879 21.7165 11.4098L19.2161 13.9096C19.0218 14.0968 19.1686 14.4527 19.438 14.444C19.438 14.444 20.5851 14.444 20.5851 14.444V17.0283C21.2099 17.2335 21.6325 17.8749 21.6259 18.5001C21.6259 18.5001 21.6259 23.8123 21.6259 23.8123C21.625 24.1516 21.5129 24.4844 21.3133 24.7498H22.9824C23.1543 24.7498 23.295 24.6092 23.295 24.4373V14.444H24.4389C24.7071 14.4541 24.8563 14.0953 24.6608 13.9096Z" fill="#302357"/>
<path d="M20.5851 17.7187C20.435 17.6218 20.2538 17.5624 20.0631 17.5624H18.1878V16.625C18.1907 16.107 17.7555 15.6853 17.2501 15.6875C17.2501 15.6875 14.7496 15.6875 14.7496 15.6875C14.6215 15.6875 14.4964 15.7156 14.3839 15.7625C14.0464 15.9062 13.8119 16.2406 13.8119 16.625V17.5624H11.9366C11.4584 17.5603 11.0476 17.9291 11.0052 18.4092C10.9989 18.4374 10.9989 18.4686 10.9989 18.4999V19.4373H21.0008V18.4999C21.0002 18.1835 20.8364 17.8896 20.5851 17.7187ZM17.5626 17.5624H14.4371V16.625C14.4384 16.4526 14.5783 16.3105 14.7496 16.3125H17.2501C17.3157 16.3125 17.3751 16.3312 17.4251 16.3656C17.5064 16.4218 17.5626 16.5187 17.5626 16.625L17.5626 17.5624Z" fill="#302357"/>
<path d="M16.3124 20.375V20.0625H15.6873V20.375C15.6952 20.7855 16.3046 20.7855 16.3124 20.375Z" fill="#302357"/>
<path d="M16.9375 20.375C16.9029 21.6117 15.096 21.6096 15.0622 20.375V20.0625H10.9989V23.8123C10.9989 23.9217 11.0177 24.0279 11.0552 24.1248C11.1834 24.4873 11.5303 24.7498 11.9366 24.7498H20.0631C20.5833 24.7519 21.0013 24.3148 21.0008 23.8123V20.0625H16.9375V20.375Z" fill="#302357"/>
<path d="M12.8743 11.0006H14.3839V15.1098C14.5058 15.0786 14.6277 15.0629 14.7496 15.0629C14.9953 15.0857 17.4455 15.0135 17.6158 15.1098C17.6158 15.1098 17.6158 11.0006 17.6158 11.0006H19.1254C19.3935 11.0101 19.5429 10.6524 19.3473 10.4663C19.3474 10.4663 16.2218 7.34141 16.2218 7.34141C16.0999 7.21953 15.8998 7.21953 15.7779 7.34141L12.6523 10.4663C12.4583 10.6528 12.6047 11.0097 12.8743 11.0006Z" fill="#302357"/>
</svg>
