<svg width="15" height="15" viewBox="0 0 15 15" fill="none" xmlns="http://www.w3.org/2000/svg">
<g clip-path="url(#clip0_1720_3924)">
<path d="M12.9099 2.6967C13.0271 2.81391 13.093 2.97288 13.093 3.13864C13.093 3.3044 13.0271 3.46337 12.9099 3.58058L8.49048 8L12.9099 12.4194C13.0271 12.5366 13.093 12.6956 13.093 12.8614C13.093 13.0271 13.0271 13.1861 12.9099 13.3033C12.7927 13.4205 12.6337 13.4864 12.468 13.4864C12.3022 13.4864 12.1432 13.4205 12.026 13.3033L7.6066 8.88388L3.18718 13.3033C3.06997 13.4205 2.911 13.4864 2.74524 13.4864C2.57948 13.4864 2.42051 13.4205 2.3033 13.3033C2.18609 13.1861 2.12024 13.0271 2.12024 12.8614C2.12024 12.6956 2.18609 12.5366 2.3033 12.4194L6.72272 8L2.3033 3.58058C2.18609 3.46337 2.12024 3.3044 2.12024 3.13864C2.12024 2.97288 2.18609 2.81391 2.3033 2.6967C2.42051 2.57949 2.57948 2.51364 2.74524 2.51364C2.911 2.51364 3.06997 2.57949 3.18718 2.6967L7.6066 7.11612L12.026 2.6967C12.1432 2.57949 12.3022 2.51364 12.468 2.51364C12.6337 2.51364 12.7927 2.57949 12.9099 2.6967Z" fill="#845EF7"/>
</g>
<defs>
<clipPath id="clip0_1720_3924">
<rect width="15" height="15" fill="white"/>
</clipPath>
</defs>
</svg>
