<svg width="32" height="32" viewBox="0 0 32 32" fill="none" xmlns="http://www.w3.org/2000/svg">
<rect width="32" height="32" rx="16" fill="#CEFFF8"/>
<path d="M8.3125 18.25H13.9375C14.6613 18.25 15.25 17.6613 15.25 16.9375V13.9375C15.25 13.2138 14.6613 12.625 13.9375 12.625H8.3125C7.58875 12.625 7 13.2138 7 13.9375V16.9375C7 17.6613 7.58875 18.25 8.3125 18.25Z" fill="#1BC6AF"/>
<path d="M8.3125 25H13.9375C14.6613 25 15.25 24.4113 15.25 23.6875V20.6875C15.25 19.9638 14.6613 19.375 13.9375 19.375H8.3125C7.58875 19.375 7 19.9638 7 20.6875V23.6875C7 24.4113 7.58875 25 8.3125 25Z" fill="#1BC6AF"/>
<path d="M23.6875 7H8.3125C7.58875 7 7 7.58875 7 8.3125V10.1875C7 10.9112 7.58875 11.5 8.3125 11.5H23.6875C24.4112 11.5 25 10.9112 25 10.1875V8.3125C25 7.58875 24.4112 7 23.6875 7Z" fill="#1BC6AF"/>
<path d="M24.4375 12.625H17.3125C17.002 12.625 16.75 12.877 16.75 13.1875C16.75 13.498 17.002 13.75 17.3125 13.75H24.4375C24.748 13.75 25 13.498 25 13.1875C25 12.877 24.748 12.625 24.4375 12.625Z" fill="#1BC6AF"/>
<path d="M24.4375 14.875H17.3125C17.002 14.875 16.75 15.127 16.75 15.4375C16.75 15.748 17.002 16 17.3125 16H24.4375C24.748 16 25 15.748 25 15.4375C25 15.127 24.748 14.875 24.4375 14.875Z" fill="#1BC6AF"/>
<path d="M24.4375 17.125H17.3125C17.002 17.125 16.75 17.377 16.75 17.6875C16.75 17.998 17.002 18.25 17.3125 18.25H24.4375C24.748 18.25 25 17.998 25 17.6875C25 17.377 24.748 17.125 24.4375 17.125Z" fill="#1BC6AF"/>
<path d="M24.4375 19.375H17.3125C17.002 19.375 16.75 19.627 16.75 19.9375C16.75 20.248 17.002 20.5 17.3125 20.5H24.4375C24.748 20.5 25 20.248 25 19.9375C25 19.627 24.748 19.375 24.4375 19.375Z" fill="#1BC6AF"/>
<path d="M24.4375 21.625H17.3125C17.002 21.625 16.75 21.877 16.75 22.1875C16.75 22.498 17.002 22.75 17.3125 22.75H24.4375C24.748 22.75 25 22.498 25 22.1875C25 21.877 24.748 21.625 24.4375 21.625Z" fill="#1BC6AF"/>
<path d="M24.4375 23.875H17.3125C17.002 23.875 16.75 24.127 16.75 24.4375C16.75 24.748 17.002 25 17.3125 25H24.4375C24.748 25 25 24.748 25 24.4375C25 24.127 24.748 23.875 24.4375 23.875Z" fill="#1BC6AF"/>
</svg>
