<svg width="23" height="24" viewBox="0 0 23 24" fill="none" xmlns="http://www.w3.org/2000/svg">
<rect width="22.7848" height="24" rx="4.8" fill="#DFD5FF"/>
<g clip-path="url(#clip0_1489_4855)">
<path d="M17.089 11.2546L14.6053 13.6757L15.1918 17.0952C15.2174 17.2448 15.156 17.3959 15.0331 17.4852C14.9638 17.5358 14.8812 17.5614 14.7987 17.5614C14.7353 17.5614 14.6715 17.5462 14.6133 17.5155L11.5422 15.901L8.47158 17.5151C8.3376 17.5861 8.17452 17.5745 8.05171 17.4848C7.9289 17.3955 7.86749 17.2444 7.89301 17.0948L8.47955 13.6753L5.99544 11.2546C5.88698 11.1485 5.84751 10.9898 5.89456 10.8459C5.94161 10.7019 6.06641 10.5963 6.21673 10.5743L9.64944 10.0759L11.1846 6.96499C11.3189 6.69266 11.7655 6.69266 11.8999 6.96499L13.435 10.0759L16.8677 10.5743C17.018 10.5963 17.1428 10.7015 17.1899 10.8459C17.2369 10.9902 17.1975 11.1481 17.089 11.2546Z" fill="#302357"/>
</g>
<defs>
<clipPath id="clip0_1489_4855">
<rect width="12.7595" height="12.7595" fill="white" transform="translate(5.16406 5.77148)"/>
</clipPath>
</defs>
</svg>
