<svg width="23" height="24" viewBox="0 0 23 24" fill="none" xmlns="http://www.w3.org/2000/svg">
<rect width="22.7848" height="24" rx="4.8" fill="#FFF4DC"/>
<g clip-path="url(#clip0_1489_4379)">
<path d="M17.214 11.4938L14.7303 13.9149L15.3168 17.3345C15.3424 17.484 15.281 17.6351 15.1581 17.7245C15.0888 17.7751 15.0062 17.8006 14.9237 17.8006C14.8603 17.8006 14.7965 17.7855 14.7383 17.7548L11.6672 16.1403L8.59658 17.7544C8.4626 17.8253 8.29952 17.8138 8.17671 17.7241C8.0539 17.6347 7.99249 17.4836 8.01801 17.3341L8.60455 13.9145L6.12044 11.4938C6.01198 11.3878 5.97251 11.2291 6.01956 11.0851C6.06661 10.9412 6.19141 10.8355 6.34173 10.8136L9.77444 10.3152L11.3096 7.20425C11.4439 6.93192 11.8905 6.93192 12.0249 7.20425L13.56 10.3152L16.9927 10.8136C17.143 10.8355 17.2678 10.9408 17.3149 11.0851C17.3619 11.2295 17.3225 11.3874 17.214 11.4938Z" fill="#E6B33D"/>
</g>
<defs>
<clipPath id="clip0_1489_4379">
<rect width="12.7595" height="12.7595" fill="white" transform="translate(5.16406 5.77197)"/>
</clipPath>
</defs>
</svg>
