<svg width="18" height="18" viewBox="0 0 18 18" fill="none" xmlns="http://www.w3.org/2000/svg">
<g clip-path="url(#clip0_1487_3472)">
<path d="M18 9C18 9.69794 17.7277 10.3546 17.2347 10.8476L16.1292 11.9532V13.5157C16.1292 14.9557 14.9568 16.1286 13.5174 16.1286H11.9543L10.8494 17.2341C10.3546 17.7277 9.69852 18 9 18C8.30148 18 7.64535 17.7277 7.15123 17.2335L6.04742 16.1309H4.48432C3.78581 16.1309 3.13026 15.858 2.63613 15.3656C2.142 14.8703 1.87142 14.2165 1.87142 13.518V11.9537L0.765871 10.8494C0.272323 10.3546 0 9.69794 0 9C0 8.30206 0.272323 7.64535 0.76529 7.15239L1.87084 6.04742V4.4849C1.87084 3.04432 3.04316 1.872 4.48258 1.872H6.04568L7.15181 0.765871C7.64535 0.272323 8.30148 0 9 0C9.69852 0 10.3546 0.272323 10.8488 0.766452L11.9526 1.87026H13.5157C14.213 1.87026 14.8697 2.142 15.3633 2.63497C15.858 3.12968 16.1286 3.78523 16.1286 4.48316V6.04626L17.2341 7.15181C17.7277 7.64535 18 8.30206 18 9Z" fill="#1BC6AF"/>
<path d="M13.1871 6.80908L7.85539 11.8607C7.80895 11.9049 7.75377 11.9399 7.69302 11.9638C7.63226 11.9877 7.56712 12 7.50133 12C7.43554 12 7.3704 11.9877 7.30964 11.9638C7.24889 11.9399 7.19371 11.9049 7.14727 11.8607L4.81463 9.65062C4.76813 9.60657 4.73125 9.55427 4.70608 9.49671C4.68092 9.43915 4.66797 9.37746 4.66797 9.31516C4.66797 9.25286 4.68092 9.19117 4.70608 9.13361C4.73125 9.07605 4.76813 9.02376 4.81463 8.9797C4.86112 8.93565 4.91632 8.9007 4.97707 8.87686C5.03782 8.85302 5.10293 8.84075 5.16869 8.84075C5.23444 8.84075 5.29955 8.85302 5.3603 8.87686C5.42105 8.9007 5.47625 8.93565 5.52275 8.9797L7.50175 10.8547L12.4799 6.13895C12.5738 6.04998 12.7011 6 12.8339 6C12.9667 6 13.0941 6.04998 13.188 6.13895C13.2819 6.22792 13.3346 6.34859 13.3346 6.47441C13.3346 6.60023 13.2819 6.7209 13.188 6.80987L13.1871 6.80908Z" fill="white"/>
</g>
<defs>
<clipPath id="clip0_1487_3472">
<rect width="18" height="18" fill="white"/>
</clipPath>
</defs>
</svg>
