<svg width="33" height="34" viewBox="0 0 33 34" fill="none" xmlns="http://www.w3.org/2000/svg">
<rect x="0.328125" y="0.58313" width="31.7249" height="33.4169" rx="4.8" fill="#1BC6AF" fill-opacity="0.2"/>
<g clip-path="url(#clip0_1482_2843)">
<path d="M20.75 25.4688C21.7363 25.4688 22.6822 25.077 23.3796 24.3796C24.077 23.6822 24.4688 22.7363 24.4688 21.75C24.4688 20.7638 24.077 19.8179 23.3796 19.1205C22.6822 18.4231 21.7363 18.0313 20.75 18.0313H17.5625C17.4926 18.0306 17.4232 18.0438 17.3584 18.0703C17.2936 18.0967 17.2348 18.1359 17.1853 18.1853C17.1359 18.2348 17.0967 18.2936 17.0703 18.3584C17.0438 18.4232 17.0306 18.4926 17.0313 18.5625V21.75C17.0323 22.736 17.4245 23.6812 18.1217 24.3784C18.8188 25.0756 19.7641 25.4677 20.75 25.4688Z" fill="#1BC6AF"/>
<path d="M20.75 9.53125C19.7641 9.53232 18.8188 9.92446 18.1217 10.6216C17.4245 11.3188 17.0323 12.2641 17.0313 13.25V16.4375C17.0306 16.5075 17.0438 16.5769 17.0703 16.6416C17.0967 16.7064 17.1359 16.7652 17.1853 16.8147C17.2348 16.8642 17.2936 16.9033 17.3584 16.9297C17.4232 16.9562 17.4926 16.9694 17.5625 16.9688H20.75C21.7363 16.9688 22.6822 16.577 23.3796 15.8796C24.077 15.1822 24.4688 14.2363 24.4688 13.25C24.4688 12.2637 24.077 11.3178 23.3796 10.6204C22.6822 9.92305 21.7363 9.53125 20.75 9.53125Z" fill="#1BC6AF"/>
<path d="M12.25 25.4688C13.2359 25.4677 14.1812 25.0756 14.8784 24.3784C15.5755 23.6812 15.9677 22.736 15.9688 21.75V18.5625C15.9694 18.4926 15.9562 18.4232 15.9297 18.3584C15.9033 18.2936 15.8642 18.2348 15.8147 18.1853C15.7652 18.1359 15.7064 18.0967 15.6416 18.0703C15.5769 18.0438 15.5075 18.0306 15.4375 18.0313H12.25C11.2637 18.0313 10.3178 18.4231 9.62045 19.1205C8.92305 19.8179 8.53125 20.7638 8.53125 21.75C8.53125 22.7363 8.92305 23.6822 9.62045 24.3796C10.3178 25.077 11.2637 25.4688 12.25 25.4688Z" fill="#1BC6AF"/>
<path d="M12.25 16.9688H15.4375C15.5075 16.9694 15.5769 16.9562 15.6416 16.9297C15.7064 16.9033 15.7652 16.8642 15.8147 16.8147C15.8642 16.7652 15.9033 16.7064 15.9297 16.6416C15.9562 16.5769 15.9694 16.5075 15.9688 16.4375V13.25C15.9688 12.5145 15.7507 11.7955 15.342 11.184C14.9334 10.5724 14.3526 10.0958 13.6731 9.81432C12.9936 9.53286 12.2459 9.45922 11.5245 9.60271C10.8031 9.7462 10.1405 10.1004 9.62045 10.6204C9.10037 11.1405 8.7462 11.8031 8.60271 12.5245C8.45922 13.2459 8.53286 13.9936 8.81432 14.6731C9.09579 15.3526 9.57243 15.9334 10.184 16.342C10.7955 16.7507 11.5145 16.9688 12.25 16.9688Z" fill="#1BC6AF"/>
</g>
<defs>
<clipPath id="clip0_1482_2843">
<rect width="17" height="17" fill="white" transform="translate(8 9)"/>
</clipPath>
</defs>
</svg>
