<svg width="25" height="24" viewBox="0 0 25 24" fill="none" xmlns="http://www.w3.org/2000/svg">
<path d="M22.0914 7.20301C21.9775 6.78041 21.7549 6.39501 21.4457 6.08518C21.1366 5.77534 20.7517 5.55187 20.3294 5.43701C18.7634 5.00701 12.4984 5.00001 12.4984 5.00001C12.4984 5.00001 6.23438 4.99301 4.66738 5.40401C4.2453 5.52415 3.8612 5.75078 3.55194 6.06214C3.24269 6.3735 3.01866 6.75913 2.90138 7.18201C2.48838 8.74801 2.48438 11.996 2.48438 11.996C2.48438 11.996 2.48038 15.26 2.89038 16.81C3.12038 17.667 3.79538 18.344 4.65338 18.575C6.23538 19.005 12.4834 19.012 12.4834 19.012C12.4834 19.012 18.7484 19.019 20.3144 18.609C20.7369 18.4943 21.1221 18.2714 21.432 17.9622C21.7419 17.653 21.9658 17.2682 22.0814 16.846C22.4954 15.281 22.4984 12.034 22.4984 12.034C22.4984 12.034 22.5184 8.76901 22.0914 7.20301ZM10.4944 15.005L10.4994 9.00501L15.7064 12.01L10.4944 15.005Z" fill="white"/>
</svg>
