<svg width="50" height="50" viewBox="0 0 50 50" fill="none" xmlns="http://www.w3.org/2000/svg">
<g clip-path="url(#clip0_105_2)">
<path d="M25 50C38.8071 50 50 38.8071 50 25C50 11.1929 38.8071 0 25 0C11.1929 0 0 11.1929 0 25C0 38.8071 11.1929 50 25 50Z" fill="#29A71A"/>
<path d="M36.0227 13.9773C33.4217 11.3503 29.9675 9.73923 26.2833 9.43472C22.599 9.13022 18.9272 10.1523 15.9301 12.3166C12.9331 14.4809 10.8081 17.645 9.93848 21.238C9.06885 24.8311 9.51182 28.6167 11.1875 31.9119L9.54261 39.8977C9.52555 39.9772 9.52506 40.0594 9.5412 40.139C9.55733 40.2187 9.58972 40.2942 9.63636 40.3608C9.70469 40.4619 9.80222 40.5397 9.91592 40.5838C10.0296 40.628 10.1541 40.6364 10.2727 40.608L18.0994 38.7528C21.3854 40.3861 25.1443 40.8006 28.7072 39.9226C32.27 39.0445 35.4059 36.9309 37.5567 33.9579C39.7075 30.9848 40.7338 27.3451 40.4529 23.6863C40.172 20.0276 38.6022 16.5872 36.0227 13.9773ZM33.5824 33.4545C31.7827 35.2491 29.4653 36.4338 26.9567 36.8415C24.4481 37.2493 21.8748 36.8595 19.5994 35.7273L18.5085 35.1875L13.7102 36.3239L13.7244 36.2642L14.7188 31.4347L14.1847 30.3807C13.022 28.0974 12.6119 25.5047 13.013 22.974C13.4141 20.4433 14.6059 18.1045 16.4176 16.2926C18.6941 14.0169 21.7811 12.7385 25 12.7385C28.2189 12.7385 31.306 14.0169 33.5824 16.2926C33.6018 16.3148 33.6227 16.3357 33.6449 16.3551C35.8931 18.6367 37.1482 21.7146 37.1365 24.9177C37.1248 28.1208 35.8472 31.1894 33.5824 33.4545Z" fill="white"/>
<path d="M33.1564 29.9119C32.5683 30.8381 31.6394 31.9716 30.4717 32.2528C28.4263 32.7472 25.2871 32.2699 21.3808 28.6278L21.3325 28.5852C17.8979 25.4006 17.0058 22.75 17.2217 20.6477C17.3411 19.4545 18.3354 18.375 19.1735 17.6704C19.3059 17.5574 19.4631 17.4769 19.6322 17.4353C19.8014 17.3938 19.978 17.3925 20.1477 17.4314C20.3175 17.4704 20.4759 17.5485 20.6101 17.6595C20.7443 17.7706 20.8506 17.9115 20.9206 18.071L22.1848 20.9119C22.267 21.0961 22.2974 21.2992 22.2729 21.4994C22.2484 21.6996 22.1698 21.8894 22.0456 22.0483L21.4064 22.8778C21.2693 23.0491 21.1865 23.2575 21.1688 23.4762C21.151 23.695 21.1992 23.914 21.307 24.1051C21.6649 24.7329 22.5229 25.6562 23.4746 26.5114C24.5428 27.4773 25.7274 28.3608 26.4774 28.6619C26.6781 28.7439 26.8988 28.7639 27.1109 28.7194C27.3231 28.6748 27.517 28.5677 27.6678 28.4119L28.4092 27.6648C28.5523 27.5237 28.7302 27.4231 28.9249 27.3732C29.1195 27.3233 29.3239 27.3258 29.5172 27.3807L32.52 28.2329C32.6857 28.2838 32.8375 28.3718 32.9639 28.4903C33.0903 28.6088 33.188 28.7546 33.2494 28.9166C33.3108 29.0786 33.3343 29.2525 33.3182 29.425C33.3021 29.5975 33.2468 29.7641 33.1564 29.9119Z" fill="white"/>
</g>
<defs>
<clipPath id="clip0_105_2">
<rect width="50" height="50" fill="white"/>
</clipPath>
</defs>
</svg>
