<svg width="24" height="25" viewBox="0 0 24 25" fill="none" xmlns="http://www.w3.org/2000/svg">
<g clip-path="url(#clip0_1665_42342)">
<path d="M15.4646 0.638611C15.3545 0.522705 15.2036 0.453125 15.0473 0.453125H5.68488C3.95728 0.453125 2.53125 1.87348 2.53125 3.6009V21.3052C2.53125 23.0328 3.95728 24.4532 5.68488 24.4532H18.3921C20.1197 24.4532 21.5457 23.0328 21.5457 21.3052V7.24727C21.5457 7.09657 21.4761 6.95173 21.3776 6.8415L15.4646 0.638611ZM15.6327 2.49952L19.5921 6.65602H17.0182C16.253 6.65602 15.6327 6.04151 15.6327 5.27632V2.49952ZM18.3921 23.2937H5.68488C4.6009 23.2937 3.69068 22.3952 3.69068 21.3052V3.6009C3.69068 2.51691 4.59504 1.61255 5.68488 1.61255H14.4732V5.27632C14.4732 6.68495 15.6096 7.81544 17.0182 7.81544H20.3863V21.3052C20.3863 22.3952 19.4819 23.2937 18.3921 23.2937Z" fill="white"/>
<path d="M16.8092 19.2937H7.26721C6.94843 19.2937 6.6875 19.5544 6.6875 19.8734C6.6875 20.1922 6.94843 20.4531 7.26721 20.4531H16.8151C17.1339 20.4531 17.3948 20.1922 17.3948 19.8734C17.3948 19.5544 17.1339 19.2937 16.8092 19.2937Z" fill="white"/>
<path d="M11.6171 17.2126C11.7274 17.3285 11.8781 17.3981 12.0403 17.3981C12.2027 17.3981 12.3534 17.3285 12.4634 17.2126L15.8606 13.5662C16.0809 13.3342 16.0635 12.9633 15.8317 12.7488C15.5997 12.5286 15.2287 12.5458 15.0143 12.7778L12.62 15.3458V9.0155C12.62 8.69653 12.3591 8.43579 12.0403 8.43579C11.7215 8.43579 11.4606 8.69653 11.4606 9.0155V15.3458L9.07214 12.7778C8.85186 12.546 8.48657 12.5286 8.25476 12.7488C8.02294 12.9691 8.00555 13.3344 8.22582 13.5662L11.6171 17.2126Z" fill="white"/>
</g>
<defs>
<clipPath id="clip0_1665_42342">
<rect width="24" height="24" fill="white" transform="translate(0 0.5)"/>
</clipPath>
</defs>
</svg>
