<svg width="20" height="20" viewBox="0 0 20 20" fill="none" xmlns="http://www.w3.org/2000/svg">
<path d="M20 10C20 10.7755 19.6974 11.5052 19.1497 12.0529L17.9213 13.2813V15.0174C17.9213 16.6174 16.6187 17.9206 15.0194 17.9206H13.2826L12.0548 19.149C11.5052 19.6974 10.7761 20 10 20C9.22387 20 8.49484 19.6974 7.94581 19.1484L6.71935 17.9232H4.98258C4.20645 17.9232 3.47806 17.62 2.92903 17.0729C2.38 16.5226 2.07935 15.7961 2.07935 15.02V13.2819L0.850968 12.0548C0.302581 11.5052 0 10.7755 0 10C0 9.22452 0.302581 8.49484 0.850323 7.9471L2.07871 6.71935V4.98323C2.07871 3.38258 3.38129 2.08 4.98064 2.08H6.71742L7.94645 0.850968C8.49484 0.302581 9.22387 0 10 0C10.7761 0 11.5052 0.302581 12.0542 0.851613L13.2806 2.07806H15.0174C15.7923 2.07806 16.5219 2.38 17.0703 2.92774C17.62 3.47742 17.9206 4.20581 17.9206 4.98129V6.71806L19.149 7.94645C19.6974 8.49484 20 9.22452 20 10Z" fill="#E6B33D"/>
<path d="M14.5192 8.14258L9.18742 13.1942C9.14098 13.2384 9.0858 13.2734 9.02505 13.2973C8.96429 13.3212 8.89915 13.3335 8.83336 13.3335C8.76757 13.3335 8.70243 13.3212 8.64167 13.2973C8.58092 13.2734 8.52574 13.2384 8.4793 13.1942L6.14666 10.9841C6.10016 10.9401 6.06328 10.8878 6.03811 10.8302C6.01295 10.7726 6 10.711 6 10.6487C6 10.5864 6.01295 10.5247 6.03811 10.4671C6.06328 10.4095 6.10016 10.3573 6.14666 10.3132C6.19315 10.2691 6.24835 10.2342 6.3091 10.2104C6.36985 10.1865 6.43496 10.1742 6.50072 10.1742C6.56647 10.1742 6.63159 10.1865 6.69234 10.2104C6.75309 10.2342 6.80828 10.2691 6.85478 10.3132L8.83378 12.1882L13.8119 7.47245C13.9058 7.38348 14.0331 7.3335 14.1659 7.3335C14.2987 7.3335 14.4261 7.38348 14.52 7.47245C14.6139 7.56142 14.6667 7.68209 14.6667 7.80791C14.6667 7.93373 14.6139 8.0544 14.52 8.14337L14.5192 8.14258Z" fill="white"/>
</svg>
