<svg width="52" height="52" viewBox="0 0 52 52" fill="none" xmlns="http://www.w3.org/2000/svg">
<rect width="52" height="52" rx="26" fill="#DDF1FF"/>
<g clip-path="url(#clip0_1968_593)">
<path d="M33.6211 36.6641H31.1229L30.6151 35.1406H21.3927L20.8849 36.6641H18.3867C17.9658 36.6641 17.625 37.0049 17.625 37.4258C17.625 37.8467 17.9658 38.1875 18.3867 38.1875H33.6211C34.042 38.1875 34.3828 37.8467 34.3828 37.4258C34.3828 37.0049 34.042 36.6641 33.6211 36.6641Z" fill="#31A8FE"/>
<path d="M33.6211 18.3828C33.2008 18.3828 32.8594 18.7242 32.8594 19.1445C32.8594 19.5649 33.2008 19.9062 33.6211 19.9062C34.0414 19.9062 34.3828 19.5649 34.3828 19.1445C34.3828 18.7242 34.0414 18.3828 33.6211 18.3828Z" fill="#31A8FE"/>
<path d="M36.6641 13.8125H15.2852C14.0251 13.8125 13 14.8376 13 16.0977V29.0469H17.6211V26.7617C17.6211 26.3408 17.9619 26 18.3828 26H19.5597C19.6385 25.7784 19.7285 25.561 19.8305 25.3476L18.9979 24.5145C18.7004 24.2169 18.7004 23.7349 18.9979 23.4373L21.1522 21.2831C21.4497 20.9855 21.9317 20.9855 22.2293 21.2831L23.0624 22.1162C23.2759 22.0143 23.4931 21.9236 23.7148 21.8447V20.668C23.7148 20.247 24.0556 19.9062 24.4766 19.9062H27.5234C27.9444 19.9062 28.2852 20.247 28.2852 20.668V21.8449C28.5067 21.9236 28.7241 22.0145 28.9376 22.1162L29.7707 21.2831C30.0683 20.9857 30.5503 20.9857 30.8478 21.2831L33.0021 23.4373C33.2996 23.7349 33.2996 24.2171 33.0021 24.5145L32.1695 25.3476C32.2715 25.5612 32.3615 25.7784 32.4403 26H33.6172C34.0381 26 34.3789 26.3408 34.3789 26.7617V29.0469H39V16.0977C39 14.8376 37.9241 13.8125 36.6641 13.8125ZM33.6172 21.4297C32.3572 21.4297 31.332 20.4045 31.332 19.1445C31.332 17.8845 32.3572 16.8594 33.6172 16.8594C34.8772 16.8594 35.9023 17.8845 35.9023 19.1445C35.9023 20.4045 34.8772 21.4297 33.6172 21.4297Z" fill="#31A8FE"/>
<path d="M23.7188 28.2852C23.7188 28.5484 23.7794 28.8023 23.8665 29.0469H28.1413C28.2284 28.8023 28.2891 28.5484 28.2891 28.2852C28.2891 27.0251 27.2639 26 26.0039 26C24.7437 26 23.7188 27.0251 23.7188 28.2852Z" fill="#31A8FE"/>
<path d="M20.8559 26.9521C20.769 27.2884 20.4655 27.5234 20.118 27.5234H19.1406V29.0469H22.2877C22.2365 28.7959 22.1875 28.5438 22.1875 28.2852C22.1875 26.1853 23.8962 24.4766 25.9961 24.4766C28.096 24.4766 29.8047 26.1853 29.8047 28.2852C29.8047 28.5438 29.7557 28.7959 29.7045 29.0469H32.8516V27.5234H31.8742C31.5267 27.5234 31.2232 27.2884 31.1363 26.9521C31.0149 26.4798 30.8253 26.023 30.5724 25.5945C30.396 25.2956 30.4444 24.9147 30.6898 24.6692L31.3825 23.9759L30.3054 22.8988L29.6121 23.5921C29.3665 23.8384 28.9848 23.8874 28.6859 23.7089C28.2582 23.4568 27.8022 23.2663 27.3291 23.1449C26.9929 23.0581 26.7578 22.7546 26.7578 22.407V21.4297H25.2344V22.407C25.2344 22.7546 24.9993 23.0581 24.6631 23.1449C24.19 23.2663 23.7339 23.4568 23.3063 23.7089C23.0087 23.8874 22.6263 23.8384 22.3801 23.5921L21.6868 22.8988L20.6097 23.9759L21.3024 24.6692C21.5478 24.9147 21.5962 25.2956 21.4198 25.5945C21.1669 26.023 20.9773 26.4798 20.8559 26.9521Z" fill="#31A8FE"/>
<path d="M13 31.332C13 32.592 14.0251 33.6172 15.2852 33.6172H36.6641C37.9241 33.6172 39 32.592 39 31.332V30.5703H13V31.332Z" fill="#31A8FE"/>
</g>
<defs>
<clipPath id="clip0_1968_593">
<rect width="26" height="26" fill="white" transform="translate(13 13)"/>
</clipPath>
</defs>
</svg>
