<svg width="52" height="52" viewBox="0 0 52 52" fill="none" xmlns="http://www.w3.org/2000/svg">
<rect width="52" height="52" rx="26" fill="#FFF2D5"/>
<path d="M33.3119 17.571C33.9294 17.571 34.4285 18.0711 34.4285 18.6873V36.5632C34.4285 37.1794 33.9294 37.6795 33.3119 37.6795H18.6869C18.0694 37.6795 17.5703 37.1794 17.5703 36.5632V18.6873C17.5703 18.0711 18.0694 17.571 18.6869 17.571L33.3119 17.571ZM32.8035 19.5007C32.8035 19.3321 32.6666 19.1956 32.4994 19.1956H19.4994C19.3323 19.1956 19.1953 19.3321 19.1953 19.5007V35.7498C19.1953 35.9184 19.3323 36.0549 19.4994 36.0549H32.4994C32.6666 36.0549 32.8035 35.9184 32.8035 35.7498V19.5007ZM32.1953 19.8049V35.4456H19.8035V19.8049H32.1953ZM21.1244 31.9924H30.8744C31.0416 31.9924 31.1785 31.8559 31.1785 31.6882C31.1785 31.5196 31.0416 31.3831 30.8744 31.3831H21.1244C20.9573 31.3831 20.8203 31.5196 20.8203 31.6882C20.8203 31.8559 20.9573 31.9924 21.1244 31.9924ZM21.1244 33.6174H30.8744C31.0416 33.6174 31.1785 33.4809 31.1785 33.3123C31.1785 33.1446 31.0416 33.0081 30.8744 33.0081H21.1244C20.9573 33.0081 20.8203 33.1446 20.8203 33.3123C20.8203 33.4809 20.9573 33.6174 21.1244 33.6174ZM25.9994 21.6331C23.5898 21.6331 21.6328 23.5896 21.6328 25.9998C21.6328 28.4101 23.5898 30.3678 25.9994 30.3678C28.4091 30.3678 30.366 28.4101 30.366 25.9998C30.366 23.5896 28.4091 21.6331 25.9994 21.6331ZM25.9994 26.5081C25.2705 26.5081 24.6785 25.9162 24.6785 25.1877C24.6785 24.4593 25.2705 23.8674 25.9994 23.8674C26.7283 23.8674 27.3203 24.4593 27.3203 25.1877C27.3203 25.9162 26.7283 26.5081 25.9994 26.5081ZM28.8873 28.4024C28.5576 27.6407 27.9332 27.0362 27.1601 26.7291C27.6267 26.3764 27.9285 25.8174 27.9285 25.1877C27.9285 24.123 27.0649 23.2581 25.9994 23.2581C24.9339 23.2581 24.0703 24.123 24.0703 25.1877C24.0703 25.8174 24.3721 26.3764 24.8387 26.7291C24.0656 27.0362 23.4412 27.6407 23.1116 28.4024C22.5683 27.7512 22.241 26.9135 22.241 25.9998C22.241 23.9259 23.9264 22.2424 25.9994 22.2424C28.0724 22.2424 29.7578 23.9259 29.7578 25.9998C29.7578 26.9135 29.4305 27.7512 28.8873 28.4024ZM23.5828 28.8773C23.9101 27.8564 24.8689 27.1174 25.9994 27.1174C27.1299 27.1174 28.0887 27.8564 28.416 28.8773C27.7637 29.427 26.9187 29.7585 25.9994 29.7585C25.0801 29.7585 24.2351 29.427 23.5828 28.8773ZM22.7331 16.9616L21.3728 14.7865C21.3148 14.6927 21.3124 14.5749 21.3658 14.4774C21.4192 14.3807 21.5214 14.3206 21.6328 14.3206H24.8828C24.9873 14.3206 25.0848 14.375 25.1405 14.4636L26.7005 16.9616H22.7331ZM27.4201 16.9616L26.3592 15.2631L26.8583 14.4636C26.9141 14.375 27.0116 14.3206 27.116 14.3206H30.366C30.4774 14.3206 30.5796 14.3807 30.633 14.4774C30.6864 14.5749 30.6841 14.6927 30.626 14.7865L29.2657 16.9616L27.4201 16.9616Z" fill="#E6B33D"/>
</svg>
