<svg width="52" height="52" viewBox="0 0 52 52" fill="none" xmlns="http://www.w3.org/2000/svg">
<rect width="52" height="52" rx="26" fill="#FFDFDF"/>
<g clip-path="url(#clip0_1968_573)">
<path d="M22.9023 25.2383C23.3223 25.2383 23.6641 25.58 23.6641 26C23.6641 26.42 23.3223 26.7617 22.9023 26.7617C22.4824 26.7617 22.1406 26.42 22.1406 26C22.1406 25.58 22.4824 25.2383 22.9023 25.2383Z" fill="#EC696A"/>
<path d="M23.6641 22.2676V23.8459C23.4259 23.7611 23.1695 23.7148 22.9023 23.7148C21.6425 23.7148 20.6172 24.7401 20.6172 26C20.6172 27.2599 21.6425 28.2852 22.9023 28.2852C23.1695 28.2852 23.4259 28.2389 23.6641 28.1541V29.7324C23.4147 29.7832 23.1598 29.8086 22.9023 29.8086C20.8025 29.8086 19.0938 28.0998 19.0938 26C19.0938 23.9002 20.8025 22.1914 22.9023 22.1914C23.1598 22.1914 23.4147 22.2168 23.6641 22.2676Z" fill="#EC696A"/>
<path d="M17.5703 26C17.5703 28.9402 19.9621 31.332 22.9023 31.332C23.1588 31.332 23.4132 31.3143 23.6641 31.2777V35.9023H21.3789C20.9584 35.9023 20.6172 35.5611 20.6172 35.1406V34.062C19.9941 33.8848 19.3934 33.6339 18.8211 33.3125L18.0548 34.0793C17.7572 34.3769 17.2753 34.3769 16.9777 34.0793L14.823 31.9246C14.5254 31.627 14.5265 31.1441 14.823 30.8476L15.5898 30.0808C15.2679 29.509 15.0175 28.9082 14.8403 28.2852H13.7617C13.3413 28.2852 13 27.9439 13 27.5234V24.4766C13 24.0561 13.3413 23.7148 13.7617 23.7148H14.8403C15.0175 23.0918 15.2679 22.491 15.5898 21.9187L14.823 21.1524C14.5265 20.8559 14.5254 20.373 14.823 20.0754L16.9777 17.9207C17.2753 17.6231 17.7572 17.6231 18.0548 17.9207L18.8216 18.6875C19.3934 18.3655 19.9941 18.1152 20.6172 17.938V16.8594C20.6172 16.4389 20.9584 16.0977 21.3789 16.0977H23.6641V20.7223C23.4132 20.6857 23.1588 20.668 22.9023 20.668C19.9621 20.668 17.5703 23.0598 17.5703 26Z" fill="#EC696A"/>
<path d="M34.4297 16.5435V20.668H38.5541L34.4297 16.5435ZM27.4727 20.668H30.6211C31.0416 20.668 31.3828 21.0092 31.3828 21.4297C31.3828 21.8502 31.0416 22.1914 30.6211 22.1914H27.4727C27.0522 22.1914 26.7109 21.8502 26.7109 21.4297C26.7109 21.0092 27.0522 20.668 27.4727 20.668ZM35.1914 31.332H27.4727C27.0522 31.332 26.7109 30.9908 26.7109 30.5703C26.7109 30.1498 27.0522 29.8086 27.4727 29.8086H35.1914C35.6119 29.8086 35.9531 30.1498 35.9531 30.5703C35.9531 30.9908 35.6119 31.332 35.1914 31.332ZM35.1914 28.2852H27.4727C27.0522 28.2852 26.7109 27.9439 26.7109 27.5234C26.7109 27.103 27.0522 26.7617 27.4727 26.7617H35.1914C35.6119 26.7617 35.9531 27.103 35.9531 27.5234C35.9531 27.9439 35.6119 28.2852 35.1914 28.2852ZM35.1914 25.2383H27.4727C27.0522 25.2383 26.7109 24.897 26.7109 24.4766C26.7109 24.0561 27.0522 23.7148 27.4727 23.7148H35.1914C35.6119 23.7148 35.9531 24.0561 35.9531 24.4766C35.9531 24.897 35.6119 25.2383 35.1914 25.2383ZM33.668 22.1914C33.2475 22.1914 32.9062 21.8502 32.9062 21.4297V16.0977H25.1875V35.9023H38.2383C38.6587 35.9023 39 35.5611 39 35.1406V22.1914H33.668Z" fill="#EC696A"/>
</g>
<defs>
<clipPath id="clip0_1968_573">
<rect width="26" height="26" fill="white" transform="translate(13 13)"/>
</clipPath>
</defs>
</svg>
