<svg width="52" height="52" viewBox="0 0 52 52" fill="none" xmlns="http://www.w3.org/2000/svg">
<rect width="52" height="52" rx="26" fill="#D9FFFA"/>
<path d="M18.7022 29.0228C18.7717 28.2714 19.3166 27.5828 20.039 27.3369C20.039 27.3369 20.039 23.9774 20.039 23.9774H21.5302C21.6928 23.9774 21.8431 23.8799 21.904 23.7255C21.9691 23.5752 21.9325 23.4005 21.8187 23.2827L18.5681 20.0329C18.4096 19.8745 18.1496 19.8745 17.9911 20.0329L14.7405 23.2827C14.4881 23.526 14.6787 23.9887 15.029 23.9774C15.029 23.9774 16.5162 23.9774 16.5162 23.9774V36.9687C16.5162 37.1921 16.699 37.3749 16.9225 37.3749H19.0963C18.832 37.0189 18.6884 36.6187 18.686 36.1562V29.2503C18.686 29.1975 18.6859 29.1162 18.7022 29.0228Z" fill="#1BC6AF"/>
<path d="M37.2562 23.2827L34.0056 20.0329C33.8472 19.8745 33.5871 19.8745 33.4286 20.0329L30.178 23.2827C29.9255 23.526 30.1163 23.9887 30.4666 23.9774C30.4665 23.9774 31.9577 23.9774 31.9577 23.9774V27.3369C32.77 27.6038 33.3194 28.4375 33.3108 29.2503C33.3108 29.2503 33.3108 36.1562 33.3108 36.1562C33.3097 36.5973 33.164 37.0299 32.9045 37.3749H35.0743C35.2978 37.3749 35.4806 37.1921 35.4806 36.9687V23.9774H36.9677C37.3164 23.9906 37.5103 23.5241 37.2562 23.2827Z" fill="#1BC6AF"/>
<path d="M31.962 28.2347C31.767 28.1088 31.5313 28.0316 31.2834 28.0316H28.8455V26.8129C28.8493 26.1396 28.2836 25.5914 27.6265 25.5942C27.6265 25.5942 24.3759 25.5942 24.3759 25.5942C24.2093 25.5942 24.0468 25.6308 23.9005 25.6917C23.4617 25.8786 23.1569 26.3133 23.1569 26.8129V28.0316H20.719C20.0974 28.0288 19.5633 28.5084 19.5081 29.1325C19.5 29.1691 19.5 29.2097 19.5 29.2503V30.469H32.5024V29.2503C32.5017 28.8391 32.2887 28.457 31.962 28.2347ZM28.0328 28.0316H23.9696V26.8129C23.9713 26.5889 24.1532 26.4041 24.3759 26.4067H27.6265C27.7118 26.4067 27.789 26.4311 27.854 26.4758C27.9597 26.5489 28.0328 26.6748 28.0328 26.8129L28.0328 28.0316Z" fill="#1BC6AF"/>
<path d="M26.4064 31.6877V31.2815H25.5938V31.6877C25.604 32.2213 26.3962 32.2213 26.4064 31.6877Z" fill="#1BC6AF"/>
<path d="M27.2202 31.6877C27.1752 33.2955 24.8262 33.2927 24.7822 31.6877V31.2815H19.5V36.1563C19.5 36.2984 19.5244 36.4366 19.5731 36.5625C19.7397 37.0337 20.1908 37.375 20.719 37.375H31.2834C31.9597 37.3777 32.503 36.8095 32.5024 36.1563V31.2815H27.2202V31.6877Z" fill="#1BC6AF"/>
<path d="M21.9352 19.5008H23.8978V24.8427C24.0562 24.8021 24.2147 24.7818 24.3732 24.7818C24.6926 24.8114 27.8778 24.7175 28.0992 24.8427C28.0992 24.8427 28.0992 19.5008 28.0992 19.5008H30.0617C30.4102 19.5131 30.6044 19.0481 30.3502 18.8061C30.3502 18.8061 26.287 14.7438 26.287 14.7438C26.1285 14.5854 25.8684 14.5854 25.71 14.7438L21.6467 18.8061C21.3945 19.0486 21.5848 19.5127 21.9352 19.5008Z" fill="#1BC6AF"/>
</svg>
