<svg width="52" height="52" viewBox="0 0 52 52" fill="none" xmlns="http://www.w3.org/2000/svg">
<rect width="52" height="52" rx="26" fill="#FFE7D6"/>
<path d="M36.2824 35.6308C36.2995 35.7102 36.2986 35.7924 36.2799 35.8714C36.2612 35.9504 36.2251 36.0243 36.1743 36.0876C36.1234 36.1509 36.0591 36.202 35.986 36.2373C35.9128 36.2726 35.8328 36.2912 35.7516 36.2916C35.6928 36.2906 35.6345 36.2815 35.5782 36.2645L32.9674 35.3925C31.4829 36.1566 29.7987 36.4439 28.1448 36.2151C26.4909 35.9863 24.9479 35.2526 23.7266 34.1141C25.2925 34.0454 26.8188 33.6 28.1759 32.8155C29.5329 32.031 30.6807 30.9308 31.5218 29.608C32.3628 28.2853 32.8724 26.7792 33.0071 25.2175C33.1418 23.6558 32.8978 22.0847 32.2957 20.6375C33.4544 21.1045 34.4896 21.8327 35.3207 22.7654C36.1518 23.6981 36.7562 24.8102 37.087 26.0148C37.4178 27.2195 37.466 28.4843 37.2278 29.7106C36.9895 30.937 36.4714 32.0917 35.7136 33.085L36.2824 35.6308Z" fill="#EA7D30"/>
<path d="M23.2918 15.7083C21.6538 15.7069 20.0491 16.1701 18.6638 17.0441C17.2786 17.9181 16.1696 19.1671 15.4656 20.6461C14.7616 22.125 14.4915 23.7733 14.6867 25.3996C14.8818 27.0258 15.5342 28.5634 16.5681 29.8338L16.2528 32.9874C16.2434 33.0817 16.2588 33.1768 16.2976 33.2633C16.3365 33.3498 16.3973 33.4245 16.474 33.4801C16.5508 33.5357 16.6408 33.5702 16.735 33.5801C16.8293 33.59 16.9245 33.5751 17.0111 33.5367L19.7975 32.2984C20.8971 32.7889 22.0877 33.0421 23.2918 33.0416C25.5903 33.0416 27.7947 32.1285 29.42 30.5032C31.0453 28.8779 31.9584 26.6735 31.9584 24.3749C31.9584 22.0764 31.0453 19.872 29.42 18.2467C27.7947 16.6213 25.5903 15.7083 23.2918 15.7083ZM23.8334 27.0833H19.5001C19.3564 27.0833 19.2187 27.0262 19.1171 26.9246C19.0155 26.823 18.9584 26.6852 18.9584 26.5416C18.9584 26.3979 19.0155 26.2602 19.1171 26.1586C19.2187 26.057 19.3564 25.9999 19.5001 25.9999H23.8334C23.9771 25.9999 24.1149 26.057 24.2164 26.1586C24.318 26.2602 24.3751 26.3979 24.3751 26.5416C24.3751 26.6852 24.318 26.823 24.2164 26.9246C24.1149 27.0262 23.9771 27.0833 23.8334 27.0833ZM26.5418 27.0833H25.4584C25.3148 27.0833 25.177 27.0262 25.0754 26.9246C24.9738 26.823 24.9168 26.6852 24.9168 26.5416C24.9168 26.3979 24.9738 26.2602 25.0754 26.1586C25.177 26.057 25.3148 25.9999 25.4584 25.9999H26.5418C26.6854 25.9999 26.8232 26.057 26.9248 26.1586C27.0264 26.2602 27.0834 26.3979 27.0834 26.5416C27.0834 26.6852 27.0264 26.823 26.9248 26.9246C26.8232 27.0262 26.6854 27.0833 26.5418 27.0833ZM26.5418 24.3749H19.5001C19.3564 24.3749 19.2187 24.3179 19.1171 24.2163C19.0155 24.1147 18.9584 23.9769 18.9584 23.8333C18.9584 23.6896 19.0155 23.5518 19.1171 23.4502C19.2187 23.3487 19.3564 23.2916 19.5001 23.2916H26.5418C26.6854 23.2916 26.8232 23.3487 26.9248 23.4502C27.0264 23.5518 27.0834 23.6896 27.0834 23.8333C27.0834 23.9769 27.0264 24.1147 26.9248 24.2163C26.8232 24.3179 26.6854 24.3749 26.5418 24.3749ZM26.5418 21.6666H21.6668C21.5231 21.6666 21.3853 21.6095 21.2837 21.5079C21.1822 21.4064 21.1251 21.2686 21.1251 21.1249C21.1251 20.9813 21.1822 20.8435 21.2837 20.7419C21.3853 20.6403 21.5231 20.5833 21.6668 20.5833H26.5418C26.6854 20.5833 26.8232 20.6403 26.9248 20.7419C27.0264 20.8435 27.0834 20.9813 27.0834 21.1249C27.0834 21.2686 27.0264 21.4064 26.9248 21.5079C26.8232 21.6095 26.6854 21.6666 26.5418 21.6666Z" fill="#EA7D30"/>
</svg>
