<svg width="50" height="50" viewBox="0 0 50 50" fill="none" xmlns="http://www.w3.org/2000/svg">
<g clip-path="url(#clip0_3871_1039)">
<path fill-rule="evenodd" clip-rule="evenodd" d="M25 0C38.8071 0 50 11.1929 50 25C50 38.8071 38.8071 50 25 50C11.1929 50 0 38.8071 0 25C0 11.1929 11.1929 0 25 0ZM40.8691 34.6915V16.1111L31.5784 25.4013L40.8691 34.6915ZM11.1156 35.07H38.885L30.3979 26.5829L27.1632 29.8171C27.0063 29.9735 26.7939 30.0613 26.5724 30.0612H23.4278C23.3181 30.0613 23.2095 30.0398 23.1081 29.9979C23.0067 29.956 22.9146 29.8946 22.8369 29.8171L19.6023 26.5829L11.1152 35.07H11.1156ZM9.13086 16.1105V34.692L18.4216 25.4013L9.13086 16.1105ZM39.6881 14.93H10.3125L23.7738 28.3913H26.2267L39.6881 14.93Z" fill="black"/>
</g>
<defs>
<clipPath id="clip0_3871_1039">
<rect width="50" height="50" fill="white"/>
</clipPath>
</defs>
</svg>
