<svg width="31" height="30" viewBox="0 0 31 30" fill="none" xmlns="http://www.w3.org/2000/svg">
<g clip-path="url(#clip0_1684_243)">
<path d="M30.5 15.0001C30.5 16.1633 30.0461 17.2578 29.2245 18.0794L27.3819 19.922V22.5262C27.3819 24.9262 25.4281 26.881 23.029 26.881H20.4239L18.5823 28.7236C17.7577 29.5462 16.6642 30.0001 15.5 30.0001C14.3358 30.0001 13.2423 29.5462 12.4187 28.7226L10.579 26.8849H7.97387C6.80968 26.8849 5.7171 26.4301 4.89355 25.6094C4.07 24.7839 3.61903 23.6943 3.61903 22.5301V19.923L1.77645 18.0823C0.953871 17.2578 0.5 16.1633 0.5 15.0001C0.5 13.8368 0.953871 12.7423 1.77548 11.9207L3.61806 10.0791V7.4749C3.61806 5.07393 5.57194 3.12006 7.97097 3.12006H10.5761L12.4197 1.27651C13.2423 0.453932 14.3358 6.10352e-05 15.5 6.10352e-05C16.6642 6.10352e-05 17.7577 0.453932 18.5813 1.27748L20.421 3.11716H23.0261C24.1884 3.11716 25.2829 3.57006 26.1055 4.39167C26.93 5.21619 27.381 6.30877 27.381 7.472V10.0772L29.2235 11.9197C30.0461 12.7423 30.5 13.8368 30.5 15.0001Z" fill="#EFB328"/>
<path d="M22.2788 12.2137L14.2811 19.7911C14.2115 19.8573 14.1287 19.9099 14.0376 19.9457C13.9464 19.9816 13.8487 20.0001 13.75 20.0001C13.6514 20.0001 13.5536 19.9816 13.4625 19.9457C13.3714 19.9099 13.2886 19.8573 13.2189 19.7911L9.71999 16.476C9.65024 16.4099 9.59492 16.3315 9.55717 16.2451C9.51943 16.1588 9.5 16.0663 9.5 15.9728C9.5 15.8794 9.51943 15.7868 9.55717 15.7005C9.59492 15.6141 9.65024 15.5357 9.71999 15.4696C9.78973 15.4035 9.87253 15.3511 9.96365 15.3154C10.0548 15.2796 10.1524 15.2612 10.2511 15.2612C10.3497 15.2612 10.4474 15.2796 10.5385 15.3154C10.6296 15.3511 10.7124 15.4035 10.7822 15.4696L13.7507 18.2821L21.2178 11.2085C21.3587 11.075 21.5497 11.0001 21.7489 11.0001C21.9481 11.0001 22.1392 11.075 22.28 11.2085C22.4209 11.3419 22.5 11.5229 22.5 11.7117C22.5 11.9004 22.4209 12.0814 22.28 12.2149L22.2788 12.2137Z" fill="white"/>
</g>
<defs>
<clipPath id="clip0_1684_243">
<rect width="30" height="30" fill="white" transform="translate(0.5 6.10352e-05)"/>
</clipPath>
</defs>
</svg>
