<svg width="32" height="32" viewBox="0 0 32 32" fill="none" xmlns="http://www.w3.org/2000/svg">
<rect width="32" height="32" rx="5" fill="#302357" fill-opacity="0.15"/>
<path d="M7.28985 25.0557H6.20336C6.09096 25.0557 6 25.1466 6 25.259C6 25.3714 6.09096 25.4624 6.20336 25.4624H7.28985C7.40225 25.4624 7.4932 25.3714 7.4932 25.259C7.4932 25.1466 7.40225 25.0557 7.28985 25.0557Z" fill="#302357"/>
<path d="M25.7966 25.0563H24.7512C25.1785 24.7153 25.453 24.191 25.453 23.6018V23.2725H7.15092V23.6018C7.15092 24.3021 7.53809 24.9114 8.10964 25.2291C8.108 25.2395 8.10347 25.2488 8.10347 25.2597C8.10347 25.3721 8.19443 25.463 8.30683 25.463C9.37574 25.4632 6.87284 25.4631 25.7966 25.463C25.909 25.463 26 25.3721 26 25.2597C26 25.1473 25.909 25.0563 25.7966 25.0563Z" fill="#302357"/>
<path d="M24.872 11.9981C24.872 11.26 24.2741 10.6621 23.5359 10.6621H21.4454C21.5857 11.0566 21.5654 11.4877 21.3925 11.8639H23.5359C23.6091 11.8639 23.6701 11.9249 23.6701 12.0001V21.8645H8.93494V12.0001C8.93494 11.9249 8.99391 11.8639 9.06917 11.8639H13.7321L14.5984 10.6621H9.06917C8.32895 10.6621 7.73108 11.26 7.73108 11.9981V22.865H24.872V11.9981Z" fill="#302357"/>
<path d="M10.525 15.0214L11.5785 16.9439C11.6885 17.1445 11.9402 17.218 12.1409 17.108L12.5184 16.9012L12.54 16.9404C12.6215 17.0893 12.8082 17.1437 12.957 17.0622L14.8091 16.0473C14.9579 15.9657 15.0124 15.7791 14.9308 15.6303L13.4361 12.9028C13.3545 12.754 13.1679 12.6995 13.0191 12.781L11.167 13.7959C11.0181 13.8775 10.9637 14.0641 11.0452 14.213L11.0668 14.2522L10.6892 14.4591C10.4886 14.5691 10.415 14.8208 10.525 15.0214Z" fill="#302357"/>
<path d="M13.7931 12.7075L15.2878 15.4344C15.3122 15.4771 15.3305 15.5198 15.3427 15.5666C15.9528 15.532 17.3641 15.4527 20.5059 15.2758L16.7337 8.39453L13.7097 12.5896C13.7423 12.6242 13.7687 12.6648 13.7931 12.7075Z" fill="#302357"/>
<path d="M21.0782 15.4758C21.216 15.7272 21.5315 15.8194 21.783 15.6816L21.8602 15.6392C22.1116 15.5015 22.2037 15.1859 22.066 14.9345L17.8654 7.26975C17.7276 7.01832 17.4121 6.92619 17.1606 7.06398L17.0834 7.1063C16.832 7.24408 16.7398 7.5596 16.8776 7.81103L21.0782 15.4758Z" fill="#302357"/>
<path d="M20.9838 10.6177C20.7459 10.1845 20.2822 9.9568 19.8226 9.99544L20.8821 11.9293C21.1648 11.5632 21.2197 11.0488 20.9838 10.6177Z" fill="#302357"/>
<path d="M15.2817 20.4838L16.3595 19.8941C16.4937 19.8209 16.5425 19.6521 16.4693 19.5159C15.5765 18.5195 14.938 17.7406 14.5699 16.6426L13.2542 17.3645L14.9034 20.374C14.9766 20.5082 15.1454 20.559 15.2817 20.4838Z" fill="#302357"/>
</svg>
