<svg width="32" height="32" viewBox="0 0 32 32" fill="none" xmlns="http://www.w3.org/2000/svg">
<rect width="32" height="32" rx="16" fill="#845EF7" fill-opacity="0.22"/>
<g clip-path="url(#clip0_1487_3391)">
<path d="M14.5938 16.4688H17.4062V17.4062H14.5938V16.4688Z" fill="#845EF7"/>
<path d="M20.9806 17.4061H18.3438V17.8749C18.3438 18.1339 18.134 18.3436 17.875 18.3436H14.125C13.866 18.3436 13.6562 18.1339 13.6562 17.8749V17.4061H11.0194C10.4133 17.4061 9.87732 17.0198 9.68542 16.4448L8 11.3877V21.6249C8 22.4003 8.63086 23.0311 9.40625 23.0311H22.5938C23.3691 23.0311 24 22.4003 24 21.6249V11.3881L22.3145 16.4448C22.1227 17.0198 21.5867 17.4061 20.9806 17.4061Z" fill="#845EF7"/>
<path d="M17.8732 8.96875H14.1232C13.3478 8.96875 12.7169 9.59961 12.7169 10.375V10.8438H8.80469L10.5726 16.1483C10.6367 16.3401 10.8157 16.4688 11.0176 16.4688H13.6544V16C13.6544 15.741 13.8641 15.5312 14.1232 15.5312H17.8732C18.1322 15.5312 18.3419 15.741 18.3419 16V16.4688H20.9788C21.1807 16.4688 21.3596 16.3401 21.4237 16.1483L23.1918 10.8438H19.2794V10.375C19.2794 9.59961 18.6486 8.96875 17.8732 8.96875ZM13.6544 10.8438V10.375C13.6544 10.1163 13.8645 9.90625 14.1232 9.90625H17.8732C18.1318 9.90625 18.3419 10.1163 18.3419 10.375V10.8438H13.6544Z" fill="#845EF7"/>
</g>
<defs>
<clipPath id="clip0_1487_3391">
<rect width="16" height="16" fill="white" transform="translate(8 8)"/>
</clipPath>
</defs>
</svg>
