<svg width="32" height="32" viewBox="0 0 32 32" fill="none" xmlns="http://www.w3.org/2000/svg">
<rect width="32" height="32" rx="16" fill="#EC696A" fill-opacity="0.22"/>
<path d="M24.235 11.005C23.7467 10.1365 23.2169 9.97675 22.138 9.916C21.0603 9.84288 18.3501 9.8125 16.0022 9.8125C13.6499 9.8125 10.9386 9.84288 9.862 9.91488C8.78537 9.97675 8.25437 10.1354 7.76162 11.005C7.25875 11.8724 7 13.3664 7 15.9966C7 15.9989 7 16 7 16C7 16.0023 7 16.0034 7 16.0034V16.0056C7 18.6246 7.25875 20.1299 7.76162 20.9882C8.25437 21.8568 8.78425 22.0143 9.86087 22.0874C10.9386 22.1504 13.6499 22.1875 16.0022 22.1875C18.3501 22.1875 21.0602 22.1504 22.1391 22.0885C23.218 22.0154 23.7479 21.8579 24.2361 20.9894C24.7435 20.131 25 18.6257 25 16.0067C25 16.0067 25 16.0034 25 16.0011C25 16.0011 25 15.9989 25 15.9978C25 13.3664 24.7435 11.8724 24.235 11.005ZM13.75 19.375V12.625L19.375 16L13.75 19.375Z" fill="#EC696A"/>
</svg>
