<svg width="32" height="32" viewBox="0 0 32 32" fill="none" xmlns="http://www.w3.org/2000/svg">
<rect width="32" height="32" rx="16" fill="#E6DDFF"/>
<path d="M7.67188 21.1357C8.92829 15.5764 11.6128 10.4409 15.4604 6.23612C15.5288 6.1617 15.612 6.10228 15.7044 6.06163C15.797 6.02099 15.8971 6 15.9981 6C16.0992 6 16.1992 6.02099 16.2917 6.06163C16.3843 6.10228 16.4675 6.1617 16.5359 6.23612C16.6874 6.40045 16.8134 6.53922 16.9129 6.65152C20.5616 10.7798 23.1107 15.7615 24.3244 21.1357C22.3697 21.5475 20.3621 21.8177 18.3134 21.9337L16.4062 25.748C16.3683 25.8237 16.31 25.8874 16.2379 25.9319C16.1659 25.9764 16.0829 26 15.9981 26C15.9134 26 15.8304 25.9764 15.7583 25.9319C15.6863 25.8874 15.628 25.8237 15.59 25.748L13.6828 21.9337C11.662 21.8194 9.65258 21.5527 7.67188 21.1357ZM15.9981 18.3475C16.7245 18.3475 17.4212 18.0589 17.9348 17.5453C18.4484 17.0317 18.737 16.3351 18.737 15.6086C18.737 14.8823 18.4484 14.1856 17.9348 13.6719C17.4212 13.1583 16.7245 12.8697 15.9981 12.8697C15.2717 12.8697 14.5751 13.1583 14.0614 13.6719C13.5478 14.1856 13.2592 14.8823 13.2592 15.6086C13.2592 16.3351 13.5478 17.0317 14.0614 17.5453C14.5751 18.0589 15.2717 18.3475 15.9981 18.3475Z" fill="#845EF7"/>
</svg>
