<svg width="32" height="32" viewBox="0 0 32 32" fill="none" xmlns="http://www.w3.org/2000/svg">
<rect width="32" height="32" rx="16" fill="#31ACFE" fill-opacity="0.22"/>
<g clip-path="url(#clip0_1487_3344)">
<path d="M8.33234 12.5961C8.13459 12.6565 8 12.8387 8 13.0451C8 13.2511 8.13503 13.4333 8.33278 13.4933L13.8322 15.1967L23.2605 8.0705L23.3137 8L8.33234 12.5961Z" fill="#31ACFE"/>
<path d="M13.8503 16.3593L13.1431 18.2559C13.0786 18.428 13.1207 18.6216 13.2507 18.7512C13.382 18.8832 13.5775 18.9221 13.746 18.8588L15.6428 18.1514L21.1909 10.811L13.8503 16.3593Z" fill="#31ACFE"/>
<path d="M23.9309 8.73974L16.8047 18.1682L18.5081 23.6673C18.5681 23.8651 18.7503 24.0001 18.9563 24.0001C18.9567 24.0001 18.9567 24.0001 18.9567 24.0001C19.1632 24.0001 19.3449 23.8651 19.4053 23.6677L24.0013 8.68652L23.9309 8.73974Z" fill="#31ACFE"/>
<path d="M11.8275 17.5192C11.6444 17.3361 11.3478 17.3361 11.1647 17.5192L8.35216 20.3317C8.16907 20.5148 8.16907 20.8114 8.35216 20.9945C8.53529 21.1776 8.83188 21.1776 9.01501 20.9945L11.8275 18.182C12.0106 17.9989 12.0106 17.7023 11.8275 17.5192Z" fill="#31ACFE"/>
<path d="M14.4798 20.1705C14.2967 19.9874 14.0001 19.9874 13.817 20.1705L11.0045 22.983C10.8214 23.1661 10.8214 23.4628 11.0045 23.6459C11.0961 23.7374 11.216 23.7832 11.3359 23.7832C11.4558 23.7832 11.5758 23.7374 11.6673 23.6459L14.4798 20.8334C14.6629 20.6503 14.6629 20.3536 14.4798 20.1705Z" fill="#31ACFE"/>
<path d="M12.0814 19.9186C11.8983 19.7355 11.6017 19.7355 11.4186 19.9186L8.13732 23.1998C7.95423 23.3829 7.95423 23.6796 8.13732 23.8627C8.22888 23.9542 8.34882 24 8.46876 24C8.5887 24 8.70863 23.9542 8.80016 23.8626L12.0814 20.5814C12.2645 20.3983 12.2645 20.1017 12.0814 19.9186Z" fill="#31ACFE"/>
</g>
<defs>
<clipPath id="clip0_1487_3344">
<rect width="16" height="16" fill="white" transform="translate(8 8)"/>
</clipPath>
</defs>
</svg>
