<svg width="32" height="32" viewBox="0 0 32 32" fill="none" xmlns="http://www.w3.org/2000/svg">
<rect width="32" height="32" rx="16" fill="#FFE3CF"/>
<path d="M24.2547 7H7.74531C7.33469 7 7 7.33188 7 7.74532V10.6394H25V7.74532C25 7.33188 24.6653 7 24.2547 7ZM8.65938 9.48908C8.305 9.48908 8.01531 9.2022 8.01531 8.84501C8.01531 8.48782 8.305 8.20095 8.65938 8.20095C9.01375 8.20095 9.30344 8.48782 9.30344 8.84501C9.30344 9.2022 9.01656 9.48908 8.65938 9.48908ZM10.9488 9.48908C10.5944 9.48908 10.3047 9.2022 10.3047 8.84501C10.3047 8.48782 10.5916 8.20095 10.9488 8.20095C11.3031 8.20095 11.5928 8.48782 11.5928 8.84501C11.5928 9.2022 11.3031 9.48908 10.9488 9.48908ZM13.2381 9.48908C12.8837 9.48908 12.5941 9.2022 12.5941 8.84501C12.5941 8.48782 12.8809 8.20095 13.2381 8.20095C13.5925 8.20095 13.8822 8.48782 13.8822 8.84501C13.8822 9.2022 13.5925 9.48908 13.2381 9.48908Z" fill="#EA7D30"/>
<path d="M7 23.9114C7 24.3221 7.33469 24.6567 7.74531 24.6567H24.2519C24.6681 24.6567 25 24.3221 25 23.9114V11.2017H7V23.9114ZM14.4166 23.5092C14.1663 23.5092 13.9666 23.3067 13.9666 23.0592C13.9666 22.8117 14.1691 22.6092 14.4166 22.6092C14.6669 22.6092 14.8666 22.8117 14.8666 23.0592C14.8666 23.3067 14.6641 23.5092 14.4166 23.5092ZM16 23.5092C15.7497 23.5092 15.55 23.3067 15.55 23.0592C15.55 22.8117 15.7525 22.6092 16 22.6092C16.2475 22.6092 16.45 22.8117 16.45 23.0592C16.45 23.3067 16.2503 23.5092 16 23.5092ZM17.5834 23.5092C17.3331 23.5092 17.1334 23.3067 17.1334 23.0592C17.1334 22.8117 17.3359 22.6092 17.5834 22.6092C17.8309 22.6092 18.0334 22.8117 18.0334 23.0592C18.0334 23.3067 17.8338 23.5092 17.5834 23.5092ZM19.8475 22.1339H12.1525C11.9978 22.1339 11.8713 22.0074 11.8713 21.8527C11.8713 21.698 11.9978 21.5714 12.1525 21.5714H19.8475C20.0022 21.5714 20.1287 21.698 20.1287 21.8527C20.1287 22.0074 20.0022 22.1339 19.8475 22.1339ZM20.6294 20.857H11.3706C11.2159 20.857 11.0894 20.7305 11.0894 20.5758C11.0894 20.4211 11.2159 20.2945 11.3706 20.2945H20.6322C20.7869 20.2945 20.9134 20.4211 20.9134 20.5758C20.9134 20.7305 20.7869 20.857 20.6294 20.857ZM20.6294 19.5773H11.3706C11.2159 19.5773 11.0894 19.4508 11.0894 19.2961C11.0894 19.1414 11.2159 19.0148 11.3706 19.0148H20.6322C20.7869 19.0148 20.9134 19.1414 20.9134 19.2961C20.9134 19.4508 20.7869 19.5773 20.6294 19.5773ZM19.42 12.4279H23.3406V17.6817H19.42V12.4279ZM14.0397 12.4279H17.9603V17.6817H14.0397V12.4279ZM8.65938 12.4279H12.58V17.6817H8.65938V12.4279Z" fill="#EA7D30"/>
</svg>
