<svg width="32" height="32" viewBox="0 0 32 32" fill="none" xmlns="http://www.w3.org/2000/svg">
<rect width="32" height="32" rx="16" fill="#1BC6AF" fill-opacity="0.22"/>
<path d="M23.5002 11.5V19.75C23.5002 20.1478 23.3421 20.5294 23.0608 20.8107C22.7795 21.092 22.398 21.25 22.0002 21.25C20.7477 21.25 18.2952 21.25 17.2227 22H23.5002C23.6991 22 23.8898 21.921 24.0305 21.7803C24.1711 21.6397 24.2502 21.4489 24.2502 21.25V12.25C24.2502 12.0511 24.1711 11.8603 24.0305 11.7197C23.8898 11.579 23.6991 11.5 23.5002 11.5Z" fill="#1BC6AF"/>
<path d="M8.5 19.75V11.5C8.30109 11.5 8.11032 11.579 7.96967 11.7197C7.82902 11.8603 7.75 12.0511 7.75 12.25V21.25C7.75 21.4489 7.82902 21.6397 7.96967 21.7803C8.11032 21.921 8.30109 22 8.5 22H14.7775C13.7125 21.25 11.2525 21.25 10 21.25C9.60218 21.25 9.22064 21.092 8.93934 20.8107C8.65804 20.5294 8.5 20.1478 8.5 19.75Z" fill="#1BC6AF"/>
<path d="M10 10C9.80109 10 9.61032 10.079 9.46967 10.2197C9.32902 10.3603 9.25 10.5511 9.25 10.75V19.75C9.25 19.9489 9.32902 20.1397 9.46967 20.2803C9.61032 20.421 9.80109 20.5 10 20.5C12.2162 20.5 14.6463 20.6125 15.625 21.7638V11.02C14.2863 10.1013 12.055 10 10 10Z" fill="#1BC6AF"/>
<path d="M22.75 19.75V10.75C22.75 10.5511 22.671 10.3603 22.5303 10.2197C22.3897 10.079 22.1989 10 22 10C19.945 10 17.7138 10.1013 16.375 11.02V21.7638C17.3537 20.6125 19.7838 20.5 22 20.5C22.1989 20.5 22.3897 20.421 22.5303 20.2803C22.671 20.1397 22.75 19.9489 22.75 19.75Z" fill="#1BC6AF"/>
</svg>
