<svg width="32" height="32" viewBox="0 0 32 32" fill="none" xmlns="http://www.w3.org/2000/svg">
<rect width="32" height="32" rx="16" fill="#FFF4CB"/>
<path fill-rule="evenodd" clip-rule="evenodd" d="M18.845 20.03L16.7238 20.7825C16.5794 20.8338 16.4187 20.7975 16.3106 20.6894C16.2025 20.5813 16.1662 20.4206 16.2175 20.2762L16.97 18.155C16.9744 18.1431 16.9806 18.1325 16.99 18.1238L22.6019 12.5113C22.8787 12.2344 23.3281 12.2344 23.605 12.5113L24.4888 13.395C24.7656 13.6719 24.7656 14.1213 24.4888 14.3981L18.8762 20.01C18.8675 20.0194 18.8569 20.0256 18.845 20.03ZM21 19.6544V21.625C21 22.1225 20.8025 22.5994 20.4506 22.9506C20.0994 23.3025 19.6225 23.5 19.125 23.5H9.125C8.6275 23.5 8.15062 23.3025 7.79937 22.9506C7.4475 22.5994 7.25 22.1225 7.25 21.625V12.875H20.4706L16.1056 17.24C15.9656 17.38 15.8581 17.55 15.7919 17.7375L15.0394 19.8581C14.8269 20.4569 14.9781 21.1237 15.4269 21.5731C15.8763 22.0219 16.5431 22.1731 17.1419 21.9606L19.2625 21.2081C19.45 21.1419 21 19.6544 21 19.6544ZM10.375 20.375H12.3556C12.7006 20.375 12.9806 20.095 12.9806 19.75C12.9806 19.405 12.7006 19.125 12.3556 19.125H10.375C10.03 19.125 9.75 19.405 9.75 19.75C9.75 20.095 10.03 20.375 10.375 20.375ZM10.375 17.875H13.6056C13.9506 17.875 14.2306 17.595 14.2306 17.25C14.2306 16.905 13.9506 16.625 13.6056 16.625H10.375C10.03 16.625 9.75 16.905 9.75 17.25C9.75 17.595 10.03 17.875 10.375 17.875ZM10.375 15.375H16.1056C16.4506 15.375 16.7306 15.095 16.7306 14.75C16.7306 14.405 16.4506 14.125 16.1056 14.125H10.375C10.03 14.125 9.75 14.405 9.75 14.75C9.75 15.095 10.03 15.375 10.375 15.375ZM7.25 11.625V10.375C7.25 9.8775 7.4475 9.40063 7.79937 9.04938C8.15062 8.6975 8.6275 8.5 9.125 8.5H19.125C19.6225 8.5 20.0994 8.6975 20.4506 9.04938C20.8025 9.40063 21 9.8775 21 10.375V11.625H7.25Z" fill="#FFC700"/>
</svg>
